<svg width="84" height="87" viewBox="0 0 84 87" fill="none" xmlns="http://www.w3.org/2000/svg">
<path d="M24.5561 50.9688H6.95168L6.95166 60.5972H24.5561V50.9688Z" fill="#E76F51"/>
<path d="M6.77417 60.8125V50.75H24.6933V60.8125H6.77417Z" stroke="#FFB8B8"/>
<path d="M6.77417 60.8125V50.75H24.6933V60.8125H6.77417Z" stroke="#D11C1C" stroke-opacity="0.55"/>
<path d="M6.41943 61.25V50.3125H25.0483V61.25H6.41943Z" stroke="#D11C1C" stroke-opacity="0.49"/>
<path d="M42.8301 50.75H25.2256L25.2256 60.3784H42.8301V50.75Z" fill="#D7EBEC"/>
<path d="M61.2844 51H43.68L43.6799 60.6284H61.2844V51Z" fill="#D7EBEC"/>
<path d="M79.7344 51H62.1299L62.1299 60.6284H79.7344V51Z" fill="#D7EBEC"/>
<path d="M24.3786 40.2544H6.77419L6.77417 49.8828H24.3786V40.2544Z" fill="#D7FBCE"/>
<path d="M42.6526 40.0312H25.0481L25.0481 49.6597H42.6526V40.0312Z" fill="#2A9D8F"/>
<path d="M24.8708 49.875V39.8125H42.79V49.875H24.8708Z" stroke="#64C24C" stroke-opacity="0.6"/>
<path d="M24.5159 50.3125V39.375H43.1447V50.3125H24.5159Z" stroke="#64C24C" stroke-opacity="0.48"/>
<path d="M61.2844 40.2544H43.68L43.6799 49.8828H61.2844V40.2544Z" fill="#D7EBEC"/>
<path d="M79.7344 40H62.1299L62.1299 49.6284H79.7344V40Z" fill="#D7EBEC"/>
<path d="M24.3786 29.75H6.77419L6.77417 39.3784H24.3786V29.75Z" fill="#F0FDED"/>
<path d="M42.8301 29.75H25.2256L25.2256 39.3784H42.8301V29.75Z" fill="#D7EBEC"/>
<path d="M61.2844 29.75H43.68L43.6799 39.3784H61.2844V29.75Z" fill="#D7EBEC"/>
<path d="M80.0559 29.75H62.4514L62.4514 39.3784H80.0559V29.75Z" fill="#2A9D8F"/>
<path d="M62.2742 39.5938V29.5312H80.1933V39.5938H62.2742Z" stroke="#64C24C" stroke-opacity="0.6"/>
<path d="M61.9192 40.0312V29.0938H80.548V40.0312H61.9192Z" stroke="#64C24C" stroke-opacity="0.48"/>
<path d="M15.2344 8.10547H9.4707V24H6.28418V8.10547H0.571289V5.51562H15.2344V8.10547ZM14.1553 17.0049C14.1553 15.6592 14.4219 14.4489 14.9551 13.374C15.4883 12.2907 16.2373 11.4613 17.2021 10.8857C18.167 10.3018 19.2757 10.0098 20.5283 10.0098C22.3818 10.0098 23.8841 10.6064 25.0352 11.7998C26.1947 12.9932 26.821 14.5758 26.9141 16.5479L26.9268 17.2715C26.9268 18.6257 26.6644 19.8359 26.1396 20.9023C25.6234 21.9688 24.8786 22.7939 23.9053 23.3779C22.9404 23.9619 21.8232 24.2539 20.5537 24.2539C18.6156 24.2539 17.0625 23.6107 15.8945 22.3242C14.735 21.0293 14.1553 19.307 14.1553 17.1572V17.0049ZM17.2402 17.2715C17.2402 18.6849 17.5322 19.7936 18.1162 20.5977C18.7002 21.3932 19.5127 21.791 20.5537 21.791C21.5947 21.791 22.403 21.3848 22.9785 20.5723C23.5625 19.7598 23.8545 18.5706 23.8545 17.0049C23.8545 15.6169 23.554 14.5166 22.9531 13.7041C22.3607 12.8916 21.5524 12.4854 20.5283 12.4854C19.5212 12.4854 18.7214 12.8874 18.1289 13.6914C17.5365 14.487 17.2402 15.6803 17.2402 17.2715ZM28.958 17.0303C28.958 14.9144 29.4489 13.2174 30.4307 11.9395C31.4124 10.653 32.7285 10.0098 34.3789 10.0098C35.8346 10.0098 37.0111 10.5176 37.9082 11.5332V4.5H40.9932V24H38.2002L38.0479 22.5781C37.1253 23.6953 35.8939 24.2539 34.3535 24.2539C32.7454 24.2539 31.4421 23.6064 30.4434 22.3115C29.4531 21.0166 28.958 19.2562 28.958 17.0303ZM32.043 17.2969C32.043 18.6934 32.3096 19.7852 32.8428 20.5723C33.3844 21.3509 34.1504 21.7402 35.1406 21.7402C36.4017 21.7402 37.3242 21.1774 37.9082 20.0518V14.1865C37.3411 13.0863 36.4271 12.5361 35.166 12.5361C34.1673 12.5361 33.3971 12.9339 32.8555 13.7295C32.3138 14.5166 32.043 15.7057 32.043 17.2969ZM43.6338 17.0049C43.6338 15.6592 43.9004 14.4489 44.4336 13.374C44.9668 12.2907 45.7158 11.4613 46.6807 10.8857C47.6455 10.3018 48.7542 10.0098 50.0068 10.0098C51.8604 10.0098 53.3626 10.6064 54.5137 11.7998C55.6732 12.9932 56.2995 14.5758 56.3926 16.5479L56.4053 17.2715C56.4053 18.6257 56.1429 19.8359 55.6182 20.9023C55.1019 21.9688 54.3571 22.7939 53.3838 23.3779C52.4189 23.9619 51.3018 24.2539 50.0322 24.2539C48.0941 24.2539 46.541 23.6107 45.373 22.3242C44.2135 21.0293 43.6338 19.307 43.6338 17.1572V17.0049ZM46.7188 17.2715C46.7188 18.6849 47.0107 19.7936 47.5947 20.5977C48.1787 21.3932 48.9912 21.791 50.0322 21.791C51.0732 21.791 51.8815 21.3848 52.457 20.5723C53.041 19.7598 53.333 18.5706 53.333 17.0049C53.333 15.6169 53.0326 14.5166 52.4316 13.7041C51.8392 12.8916 51.0309 12.4854 50.0068 12.4854C48.9997 12.4854 48.1999 12.8874 47.6074 13.6914C47.015 14.487 46.7188 15.6803 46.7188 17.2715Z" fill="#2A9D8F"/>
<path d="M51.8057 80.1523C50.7308 80.1523 49.9352 79.8477 49.4189 79.2383C48.9704 78.7135 48.7461 78.0407 48.7461 77.2197C48.7461 76.8304 48.7926 76.3776 48.8857 75.8613C48.9873 75.3451 49.1354 74.6807 49.3301 73.8682C49.5247 73.0387 49.6686 72.3786 49.7617 71.8877C49.8633 71.3883 49.9141 70.9567 49.9141 70.5928C49.9141 69.7041 49.6009 69.2598 48.9746 69.2598C48.5345 69.2598 48.1283 69.4925 47.7559 69.958C47.4427 70.3558 47.1719 70.9229 46.9434 71.6592L45.1787 80H41.4336L43.3379 71.0244C43.3887 70.8213 43.4141 70.6055 43.4141 70.377C43.4141 70.0299 43.359 69.7633 43.249 69.5771C43.1051 69.3486 42.8978 69.2344 42.627 69.2344C42.1361 69.2344 41.7087 69.4714 41.3447 69.9453C41.0231 70.3516 40.748 70.9229 40.5195 71.6592L38.7549 80H35.0098L37.7646 67H41.5098L41.2305 68.3457C41.7383 67.7786 42.2926 67.3766 42.8936 67.1396C43.3675 66.9619 43.8711 66.873 44.4043 66.873C45.1322 66.873 45.7119 67.0423 46.1436 67.3809C46.626 67.7617 46.9349 68.3372 47.0703 69.1074C47.6289 68.2441 48.2721 67.6348 49 67.2793C49.5163 67.0254 50.0791 66.8984 50.6885 66.8984C51.5602 66.8984 52.25 67.127 52.7578 67.584C53.2995 68.0833 53.5703 68.8324 53.5703 69.8311C53.5703 70.3981 53.4645 71.181 53.2529 72.1797C53.1683 72.5944 53.0667 73.0133 52.9482 73.4365C52.7367 74.249 52.5632 74.998 52.4277 75.6836C52.36 76.0391 52.3262 76.3268 52.3262 76.5469C52.3262 76.8939 52.4023 77.1647 52.5547 77.3594C52.7155 77.5456 52.9863 77.6387 53.3672 77.6387C53.8835 77.6387 54.3193 77.4271 54.6748 77.0039C54.9456 76.6823 55.2376 76.1279 55.5508 75.3408H56.6426C55.9993 77.2451 55.1868 78.5781 54.2051 79.3398C53.5111 79.8815 52.7113 80.1523 51.8057 80.1523ZM58.6738 80.1523C57.6836 80.1523 56.8838 79.8434 56.2744 79.2256C55.5635 78.4977 55.208 77.4144 55.208 75.9756C55.208 75.3662 55.2715 74.723 55.3984 74.0459C55.5169 73.3688 55.6947 72.7002 55.9316 72.04C56.4733 70.5505 57.2139 69.3486 58.1533 68.4346C59.2367 67.3936 60.485 66.873 61.8984 66.873C62.6009 66.873 63.1257 66.9958 63.4727 67.2412C63.8281 67.4782 64.0059 67.7956 64.0059 68.1934V68.3838L64.2852 67H68.0303L66.1641 75.8359C66.0879 76.0898 66.0498 76.3691 66.0498 76.6738C66.0498 77.4186 66.4053 77.791 67.1162 77.791C67.5902 77.791 68.0218 77.5498 68.4111 77.0674C68.7412 76.6611 69.012 76.0856 69.2236 75.3408H70.3154C69.8499 76.6611 69.2871 77.7064 68.627 78.4766C68.0684 79.1113 67.4378 79.5684 66.7354 79.8477C66.2191 80.0508 65.6732 80.1523 65.0977 80.1523C64.3613 80.1523 63.7731 79.9535 63.333 79.5557C62.9014 79.1494 62.639 78.5527 62.5459 77.7656C62.055 78.4596 61.5387 79.0013 60.9971 79.3906C60.3031 79.8984 59.5286 80.1523 58.6738 80.1523ZM60.3623 77.6387C60.557 77.6387 60.7601 77.5879 60.9717 77.4863C61.1917 77.3848 61.4033 77.2409 61.6064 77.0547C62.0635 76.6146 62.3682 76.0433 62.5205 75.3408L63.7646 69.4756C63.7646 69.391 63.7435 69.2936 63.7012 69.1836C63.6673 69.0651 63.6165 68.9551 63.5488 68.8535C63.3457 68.6081 63.0622 68.4854 62.6982 68.4854C62.3512 68.4854 62.0127 68.5996 61.6826 68.8281C61.361 69.0566 61.0563 69.374 60.7686 69.7803C60.2607 70.5166 59.8418 71.4772 59.5117 72.6621C59.3594 73.1868 59.2451 73.7074 59.1689 74.2236C59.0928 74.7314 59.0547 75.1927 59.0547 75.6074C59.0547 76.4707 59.2155 77.0547 59.5371 77.3594C59.6471 77.4779 59.7699 77.554 59.9053 77.5879C60.0407 77.6217 60.193 77.6387 60.3623 77.6387ZM71.2168 66.0352H74.9619L74.543 67.9902C75.4232 67.2454 76.4346 66.873 77.5771 66.873C78.5505 66.873 79.3037 67.1693 79.8369 67.7617C80.4463 68.4557 80.751 69.5264 80.751 70.9736C80.751 72.3701 80.5732 73.682 80.2178 74.9092C79.7692 76.4749 79.1175 77.6895 78.2627 78.5527C77.2132 79.6191 75.9098 80.1523 74.3525 80.1523C73.7516 80.1523 73.2565 80.0592 72.8672 79.873C72.571 79.7376 72.3298 79.5218 72.1436 79.2256L70.7979 85.5605L66.875 86.5L71.2168 66.0352ZM73.5527 77.8926C74.3906 77.8926 75.11 77.4652 75.7109 76.6104C76.1849 75.9417 76.5658 75.0023 76.8535 73.792C77.082 72.8187 77.1963 71.8538 77.1963 70.8975C77.1963 70.0426 77.0397 69.4333 76.7266 69.0693C76.5234 68.8493 76.2441 68.7393 75.8887 68.7393C75.5755 68.7393 75.2581 68.8493 74.9365 69.0693C74.6149 69.2894 74.3356 69.6068 74.0986 70.0215L72.5625 77.2959C72.6217 77.4652 72.7318 77.609 72.8926 77.7275C73.0618 77.8376 73.2819 77.8926 73.5527 77.8926Z" fill="#2A9D8F"/>
</svg>
